<svg xmlns="http://www.w3.org/2000/svg" width="64" height="64" viewBox="0 0 64 64" fill="none">
  <!-- warm amber tile -->
  <rect width="64" height="64" rx="14" fill="#F59E0B"/>
  <!-- doorway / frame -->
  <path d="M18 52V26a14 14 0 0 1 28 0v26a2 2 0 0 1-2 2H20a2 2 0 0 1-2-2Z" fill="#FDF5E6"/>
  <!-- door panel -->
  <path d="M23 51V26.5a9 9 0 0 1 18 0V51a1 1 0 0 1-1 1H24a1 1 0 0 1-1-1Z" fill="#B45309"/>
  <!-- inset panel mirroring the door arch -->
  <path d="M27 49V28.7a5 5 0 0 1 10 0V49" stroke="#FDF5E6" stroke-width="1.6" fill="none" opacity="0.5"/>
  <!-- doorknob -->
  <circle cx="37" cy="40" r="2" fill="#FDF5E6"/>
</svg>
